<?xml version="1.0" encoding="utf-8"?>
<!-- Generator: Adobe Illustrator 15.0.2, SVG Export Plug-In . SVG Version: 6.00 Build 0)  -->
<!DOCTYPE svg PUBLIC "-//W3C//DTD SVG 1.1//EN" "http://www.w3.org/Graphics/SVG/1.1/DTD/svg11.dtd">
<svg version="1.1" id="Layer_1" xmlns="http://www.w3.org/2000/svg" xmlns:xlink="http://www.w3.org/1999/xlink" x="0px" y="0px"
	 width="650px" height="600px" viewBox="0 0 650 600" enable-background="new 0 0 650 600" xml:space="preserve">
<rect x="-0.5" y="-0.5" fill="#FFFFFF" width="650" height="600"/>
<g>
	<path fill="#6BB082" d="M286.063,429.776c-22.849-0.019-41.352-18.518-41.363-41.361l0,0l0.002-268.021
		c0.012-22.848,18.51-41.352,41.361-41.362l0,0l32.813,0.027l-14.521,14.52l14.521,14.521l-32.813-0.001
		c-6.785,0.012-12.283,5.513-12.297,12.296l0,0v268.021c0.012,6.785,5.513,12.283,12.297,12.297l0,0l327.314,0.023l14.52,14.521
		l-14.52,14.521H286.063V429.776z"/>
	<path fill="#7375E6" d="M497.9,79.032L497.9,79.032c22.851,0.011,41.35,18.515,41.354,41.362v101.522
		c-0.011,22.851-18.514,41.349-41.355,41.36H21.445l14.52-14.52l-14.52-14.545H497.9h-3.76c6.782-0.014,16.04-5.512,16.058-12.296
		v-101.52c-0.021-6.783-5.519-12.284-12.296-12.296l-22.932,0.001l-14.52-14.521l14.52-14.52L497.9,79.032z"/>
	<rect x="244.702" y="234.213" fill="#7AACD6" width="29.064" height="29.064"/>
	<g>
		<path fill="#FAC473" d="M304.913,213.202c0,0-1.357,1.429-1.505,2.192c-0.905,4.756,3.507,2.859,3.932,2.275
			c0.428-0.589,0.898-2.142,0.898-2.142L304.913,213.202z"/>
		<path fill="#CDCFFF" d="M316.583,203.667l3.056-2.796c2.313,2.572,7.587,9.102,15.541,10.514l0,0l-0.729,4.074
			C324.669,213.672,318.751,205.996,316.583,203.667L316.583,203.667z"/>
		<path fill="#CDCFFF" d="M304.778,213.259c4.575-6.767,9.476-9.909,12.917-11.302l0,0l0.002,0.002l1.561,3.833
			c-2.726,1.117-6.892,3.664-11.048,9.79l0,0L304.778,213.259L304.778,213.259z"/>
		<path fill="#CDCFFF" d="M319.908,201.42l-2.485,0.715c-0.194,5.484-1.017,10.627-2.035,15.088h10.188
			C322.909,208.426,319.908,201.42,319.908,201.42z"/>
		<path d="M332.354,230.742l-3.062,1.556c-0.979-5.347-2.342-10.542-3.715-15.074h-10.188c-2.164,9.452-5.235,15.834-5.235,15.834
			s3.275,3.185,9.438,3.185l-0.027-1.542c-1.867,0-2.979-0.58-2.979-0.58s3.222-6.888,3.999-13.618
			c2.593,8.734,3.547,15.74,3.547,15.74c5.292-1.151,8.792-3.965,8.792-3.965L332.354,230.742z"/>
		<path d="M324.309,216.864h1.604c-1.455-7.396-4.604-13.232-4.604-13.232l-1.021,0.234
			C324.235,208.901,324.309,216.864,324.309,216.864z"/>
		<path fill="#FAC473" d="M317.939,193.675c0.91-0.559,4.766,0.486,5.445,1.605c0.687,1.119,0.127,5.632-1.146,6.408
			c-1.272,0.777-4.917,0.447-4.917,0.447S317.021,194.231,317.939,193.675z"/>
		<path fill="#FAC473" d="M334.29,215.456c0,0,1.854,0.663,2.613,0.488c4.717-1.098,1.192-4.364,0.485-4.517
			c-0.709-0.15-2.319,0.046-2.319,0.046L334.29,215.456z"/>
	</g>
	
		<linearGradient id="SVGID_1_" gradientUnits="userSpaceOnUse" x1="85.3877" y1="-84.5654" x2="250.9463" y2="-84.5654" gradientTransform="matrix(1 0 0 -1 221.5 9)">
		<stop  offset="0" style="stop-color:#6BB082"/>
		<stop  offset="1" style="stop-color:#7375E6"/>
	</linearGradient>
	<polygon fill="url(#SVGID_1_)" points="306.888,93.579 321.407,79.032 472.446,79.032 457.926,93.579 472.446,108.099 
		321.407,108.099 	"/>
	<g>
		<polygon fill="#61647A" points="364.749,91.147 370.581,98.911 370.674,90.933 		"/>
		<polygon fill="#3F4352" points="370.809,79.233 363.595,72.794 364.749,91.147 370.674,90.933 		"/>
		<polygon fill="#61647A" points="426.895,76.801 421.078,70.984 421.089,77.052 		"/>
		<polygon fill="#A4A8CF" points="421.089,77.052 421.078,70.984 363.595,72.794 370.809,79.233 		"/>
		<polygon fill="#3F4352" points="421.089,77.052 421.109,89.111 426.621,94.933 426.895,76.801 		"/>
		<polygon fill="#A4A8CF" points="370.674,90.933 370.581,98.911 426.621,94.933 421.109,89.111 		"/>
		<polygon fill="#61647A" points="370.674,90.933 421.109,89.111 421.089,77.052 370.809,79.233 		"/>
		<g>
			<path d="M417.087,81.676l-1.447,0.535c0.615,1.766,0.438,3.008,0.438,3.008s-8.729-2.531-17.575,0.9l2.008,5.773
				c9.623-2.055,16.677-0.255,16.677-0.255S419.111,87.494,417.087,81.676z"/>
			<path fill="#AAE6F2" d="M383.016,89.186l0.438,2.969l17.057-0.262l-1.353-6.43C390.129,87.208,383.016,89.186,383.016,89.186z"/>
			<circle fill="#FAC473" cx="400.505" cy="91.893" r="2.067"/>
			<polygon fill="#AAE6F2" points="400.08,89.872 400.537,93.958 383.448,92.154 			"/>
			<path d="M383.083,89.643l0.029,0.208c0.104-0.023,11.104-2.362,14.186-2.581l-0.229-1.392
				c-7.869,1.602-13.824,3.245-14.029,3.302L383.083,89.643z"/>
			<path fill="#FAC473" d="M383.448,92.154c0,0,0.05-3.658-0.821-4.871c-0.872-1.207-5.413-1.419-6.478-0.651
				c-1.063,0.768-1.813,4.687-1.188,5.559C375.591,93.061,383.448,92.154,383.448,92.154z"/>
		</g>
		<polygon fill="#AAE6F2" points="392.291,60.974 387.629,47.502 393.872,47.299 392.696,33.137 398.136,50.442 392.043,50.56 		"/>
		<polygon fill="#AAE6F2" points="368.719,68.227 360.004,56.943 365.857,54.761 360.229,41.714 370.9,56.381 365.163,58.436 		"/>
		<polygon fill="#AAE6F2" points="413.858,65.891 414.84,51.668 420.664,53.925 425.126,40.433 423.358,58.486 417.705,56.21 		"/>
	</g>
	<g>
		<path fill="#CCCCFF" d="M119.575,218.511c8.582-4.668,12.688-3.519,12.736-3.521l0,0l0.231-0.871l-0.272,0.859l-0.002-0.001
			l1.26-3.943c-0.521-0.188-6.012-1.605-15.938,3.846l0,0L119.575,218.511L119.575,218.511z"/>
		<path fill="#FAC473" d="M117.877,214.822c0,0-1.892,0.556-2.401,1.144c-3.168,3.659,1.597,4.234,2.26,3.94
			c0.662-0.296,1.852-1.403,1.852-1.403L117.877,214.822z"/>
		<polygon fill="#A9AFD6" points="144.438,249.942 138.604,242.178 137.452,223.825 144.665,230.265 		"/>
		<polygon fill="#CDCFFF" points="137.452,223.825 194.935,222.015 200.75,227.831 144.665,230.265 		"/>
		<polygon fill="#BFC0ED" points="200.479,245.963 144.438,249.942 144.665,230.265 200.75,227.831 		"/>
		<polygon fill="#FFFFFF" points="162.687,229.701 155.348,222.364 156.167,221.543 163.835,229.209 164.198,248.567 
			164.201,248.569 163.04,248.59 		"/>
		<path fill="#FFFFFF" d="M184.607,247.142h0.002H184.607L184.607,247.142z M183.447,247.121l0.354-18.319l-8.306-7.123l0.754-0.881
			l8.723,7.479l-0.365,18.864L183.447,247.121L183.447,247.121z"/>
		<path fill="#CCCCFF" d="M143.892,218.151c-9.138-3.451-10.948-7.314-10.983-7.348l0,0l-0.811,0.396l0.828-0.354v0.002
			l-3.809,1.621c0.198,0.519,2.71,5.603,13.319,9.56l0,0L143.892,218.151L143.892,218.151z"/>
		<path d="M132.067,243.604l-0.515-1.455c-1.774,0.588-3.013,0.388-3.013,0.388s2.664-8.69-0.633-17.589l-5.803,1.92
			c1.906,9.654,0,16.678,0,16.678S126.218,245.541,132.067,243.604z"/>
		<path fill="#CCCCFF" d="M133.926,211.753l-2.742-1.213c0,0-7.693,0.472-9.079,16.328l6.39-0.128
			C131.817,218.172,133.926,211.753,133.926,211.753z"/>
		<path d="M132.308,212.628c0.002,0.107,0.208,10.831-0.164,13.895l1.412,0.033c-0.082-8.03-0.558-13.664-0.573-13.875
			L132.308,212.628z"/>
		<path fill="#FAC473" d="M131.184,210.54c0,0,3.069,1.987,4.56,1.895c1.486-0.096,4.08-3.829,3.996-5.139
			c-0.084-1.307-3.004-4.026-4.075-3.96C134.594,203.405,131.184,210.54,131.184,210.54z"/>
		<polygon fill="#A9AFD6" points="140.571,224.43 147.235,224.188 148.629,225.036 142.025,225.641 		"/>
		<path fill="#FAC473" d="M142.209,221.845c0,0,1.655,1.072,2.433,1.073c4.842,0.01,2.164-3.975,1.509-4.284
			c-0.655-0.309-2.272-0.486-2.272-0.486L142.209,221.845z"/>
	</g>
	<g>
		<polygon fill="#CDCFFF" points="268.964,223.825 326.447,222.015 332.264,227.831 276.179,230.265 		"/>
		<polygon fill="#BFC0ED" points="331.991,245.963 275.95,249.942 276.179,230.265 332.264,227.831 		"/>
		<polygon fill="#FFFFFF" points="294.199,229.701 287.73,223.234 289.321,223.184 295.347,229.21 295.712,248.567 295.715,248.569 
			294.554,248.591 		"/>
		<polygon fill="#FFFFFF" points="314.961,247.12 315.317,228.801 308.094,222.607 309.796,222.54 316.485,228.275 316.12,247.14 
			316.122,247.143 		"/>
		<path fill="#FFCE85" d="M253.64,245.296c0,0-1.396,1.394-2.156,1.558c-4.729,1.028-2.95-3.432-2.374-3.871
			c0.577-0.439,2.119-0.952,2.119-0.952L253.64,245.296z"/>
		<polygon points="275.95,249.942 270.118,242.178 268.964,223.825 276.179,230.265 		"/>
		<polygon fill="#8CE6AA" points="250.931,242.15 262.274,232.669 264.93,235.848 253.589,245.329 		"/>
		<path fill="#8CE6AA" d="M276.154,232.281l-13.873,0.379c0,0-2.714,7.491,13.771,8.487L276.154,232.281z"/>
		<circle fill="#FFFFFF" cx="256.616" cy="222.141" r="1.236"/>
		<circle fill="#FFFFFF" cx="258.507" cy="217.667" r="1.236"/>
		<circle fill="#FFFFFF" cx="253.764" cy="215.068" r="1.667"/>
		<polygon fill="#A9AFD6" points="272.083,224.43 278.748,224.188 280.142,225.036 273.538,225.641 		"/>
		<polygon fill="#BFC0ED" points="274.68,216.419 266.493,211.529 268.964,223.825 276.179,230.265 		"/>
		<path d="M262.837,235.615c-0.003-0.664-0.209,7.92,0.162,10.982l-1.411,0.941c0.082-8.031,0.542-12.992,0.558-12.432
			L262.837,235.615z"/>
		<path fill="#FFCE85" d="M258.062,250.098c0,0-1.555,1.213-2.329,1.284c-4.821,0.444-2.511-3.766-1.885-4.132
			c0.625-0.366,2.22-0.688,2.22-0.688L258.062,250.098z"/>
		<path fill="#8CE6AA" d="M256.054,246.565c8.795-4.251,10.252-8.26,10.283-8.297l0,0l0.831,0.316l-0.844-0.274v0.003l3.938,1.275
			c-0.151,0.531-2.199,5.819-12.412,10.708l0,0L256.054,246.565L256.054,246.565z"/>
		<path fill="#FFCE85" d="M262.813,233.772c0,0-3.604,0.619-4.936-0.054c-1.332-0.672-2.246-5.125-1.654-6.294
			c0.592-1.17,4.347-2.522,5.306-2.039C262.485,225.869,262.813,233.772,262.813,233.772z"/>
	</g>
	<g>
		<path d="M479.473,232.015"/>
		<polygon points="499.809,245.503 493.976,237.739 492.822,219.386 500.035,225.825 		"/>
		<polygon fill="#CDCFFF" points="492.822,219.386 550.306,217.576 556.121,223.393 500.035,225.825 		"/>
		<polygon fill="#BFC0ED" points="555.849,241.524 499.809,245.503 500.035,225.825 556.121,223.393 		"/>
		<polygon fill="#FFFFFF" points="518.058,225.264 511.589,218.795 513.181,218.745 519.207,224.771 519.569,244.131 
			519.573,244.131 518.412,244.151 		"/>
		<polygon fill="#FFFFFF" points="538.82,242.68 539.174,224.364 531.933,218.155 533.651,218.101 540.344,223.839 539.979,242.701 
			539.98,242.703 		"/>
		<path fill="#CDCFFF" d="M481.609,234.064l9.093,1.081l9.226,0.022l0.021-10.146C499.949,225.021,475.415,224.05,481.609,234.064z"
			/>
		<path d="M494.889,245.575c0,0-0.901-17.151-12.886-17.151c-2.419,0-0.865,5.806-0.865,5.806l-7.618-1.128
			c0.736,5.367,3,8.007,3,8.007l1.573-0.435l-1.079-2.8l10.444,1.646l1.076,1.807l-7.883-1.11c0.732,5.39,3.674,8.211,3.674,8.211
			l1.579-0.437l-1.775-3.191L494.889,245.575z"/>
		<polygon fill="#A9AFD6" points="495.939,219.991 502.604,219.749 503.997,220.597 497.395,221.202 		"/>
		<polygon fill="#BFC0ED" points="498.538,211.979 490.351,207.09 492.822,219.386 500.035,225.825 		"/>
	</g>
	<g>
		<path d="M396.158,231.619c1.896,9.509,1.712,16.59,1.712,16.59s4.295,1.562,9.916-0.965l-0.662-1.395
			c-1.703,0.768-2.957,0.693-2.957,0.693s0.475-9.145-2.565-17.37L396.158,231.619z"/>
		<path d="M404.066,227.604c1.896,9.511,1.71,16.591,1.71,16.591s4.298,1.561,9.918-0.965l-0.662-1.394
			c-1.704,0.766-2.958,0.692-2.958,0.692s0.476-9.146-2.564-17.371L404.066,227.604z"/>
		<polygon fill="#434554" points="417.132,221.051 412.802,234.361 429.471,245.119 429.412,229.689 		"/>
		<path fill="#CDCFFF" d="M392.745,210.155l-2.025,1.829c-0.19,5.484-0.43,12.604-1.441,17.064l13.302-1.696
			C398.172,213.379,392.745,210.155,392.745,210.155z"/>
		<polygon fill="#71758F" points="382.524,229.132 417.132,221.051 429.412,229.689 393.077,240.968 		"/>
		<polygon points="401.459,230.087 395.326,224.842 409.249,222.104 413.626,227.063 		"/>
		<path d="M396.65,225.028h1.603c-2.809-11.746-4.604-13.232-4.604-13.232L396.65,225.028z"/>
		<path fill="#FAC473" d="M392.044,210.71c0,0,3.605,0.622,4.938-0.051c1.332-0.672,2.241-5.126,1.648-6.297
			c-0.592-1.17-4.347-2.521-5.305-2.038C392.375,202.808,392.044,210.71,392.044,210.71z"/>
		<polygon points="401.976,229.743 402.604,216.42 417.438,213.224 416.819,226.329 		"/>
		<polygon fill="#959BBD" points="382.524,229.132 382.333,245.811 393.136,255.851 393.077,240.968 		"/>
		<path fill="#FF0000" d="M427.759,203.417l-6.85,5.888l-0.756-0.881l7.729-6.646l6.251,7.359l2.979-5.12l2.941,2.316l8.516-17.112
			l1.036,0.512l-9.146,18.396l-3.021-2.373l-3.133,5.386L427.759,203.417L427.759,203.417z M420.909,209.305l0.002,0.002
			L420.909,209.305L420.909,209.305z"/>
		<polygon fill="#CFCFCF" points="419.952,216.693 419.954,192.047 421.112,192.047 421.109,215.534 449.812,215.534 
			449.812,216.693 		"/>
		<path fill="#FAC473" d="M393.702,223.92c0,0,1.971,0.006,2.625,0.428c4.062,2.626-0.354,4.512-1.068,4.414
			c-0.719-0.099-2.17-0.829-2.17-0.829L393.702,223.92z"/>
		<path fill="#CDCFFF" d="M383.605,223.953c-0.704-0.816-1.196-1.947-1.188-3.14l0,0c0.023-1.876,1.005-3.506,2.548-5.128l0,0
			c1.572-1.635,3.84-3.348,7.024-5.289l0,0l2.149,3.535c-2.992,1.822-5.018,3.39-6.188,4.618l0,0
			c-1.201,1.238-1.422,2.052-1.396,2.264l0,0c0.014,0.151,0.02,0.22,0.219,0.471l0,0c0.188,0.238,0.615,0.581,1.271,0.911l0,0
			c1.293,0.669,3.391,1.261,5.779,1.689l0,0l-0.734,4.073C389.185,227.189,385.763,226.344,383.605,223.953L383.605,223.953z"/>
	</g>
	<g>
		<path d="M308.465,398.117c1.901,9.509,1.713,16.591,1.713,16.591s4.295,1.562,9.915-0.965l-0.661-1.396
			c-1.703,0.771-2.958,0.692-2.958,0.692s0.479-9.146-2.562-17.371L308.465,398.117z"/>
		<path d="M316.373,394.104c1.901,9.517,1.711,16.597,1.711,16.597s4.297,1.562,9.917-0.972l-0.661-1.393
			c-1.704,0.766-2.958,0.691-2.958,0.691s0.479-9.146-2.562-17.37L316.373,394.104z"/>
		<polygon fill="#434554" points="329.438,387.55 325.108,399.66 341.778,412.688 341.72,396.188 		"/>
		<path fill="#8CE6AA" d="M305.052,376.652l-2.023,1.83c-0.197,5.479-0.431,12.604-1.449,17.062l13.303-1.695
			C310.479,379.877,305.052,376.652,305.052,376.652z"/>
		<polygon fill="#71758F" points="294.831,393.566 329.438,387.55 341.72,396.188 305.384,407.467 		"/>
		<polygon points="313.767,396.585 307.634,391.341 321.557,388.602 325.933,393.562 		"/>
		<path d="M308.958,391.525h1.603c-2.81-11.744-4.604-13.23-4.604-13.23L308.958,391.525z"/>
		<path fill="#FAC473" d="M304.352,377.208c0,0,3.604,0.622,4.937-0.051s2.247-5.125,1.656-6.296
			c-0.6-1.172-4.353-2.521-5.307-2.038C304.682,369.307,304.352,377.208,304.352,377.208z"/>
		<polygon points="314.282,396.242 314.91,382.918 329.743,379.723 329.126,392.828 		"/>
		<polygon fill="#959BBD" points="294.831,393.566 294.64,410.236 305.443,423.965 305.384,407.467 		"/>
		<path fill="#FF0000" d="M333.216,375.803l0.003,0.002L333.216,375.803L333.216,375.803z M332.461,374.923l7.733-6.647l2.694,3.188
			l-0.885,0.75l-1.938-2.292l-6.854,5.895L332.461,374.923L332.461,374.923z"/>
		<polygon fill="#CFCFCF" points="332.259,383.193 332.262,358.545 333.418,358.545 333.418,382.032 362.118,382.032 
			362.118,383.193 		"/>
		<path fill="#FAC473" d="M306.01,390.419c0,0,1.978,0.006,2.625,0.427c4.065,2.627-0.351,4.514-1.062,4.414
			c-0.724-0.099-2.17-0.828-2.17-0.828L306.01,390.419z"/>
		<path fill="#8CE6AA" d="M295.913,390.452c-0.705-0.817-1.196-1.947-1.187-3.142l0,0c0.024-1.875,1.005-3.504,2.549-5.127l0,0
			c1.572-1.641,3.84-3.354,7.023-5.289l0,0l2.155,3.534c-2.996,1.816-5.016,3.392-6.19,4.613l0,0
			c-1.202,1.238-1.422,2.058-1.395,2.269l0,0c0.007,0.146,0.013,0.221,0.212,0.473l0,0c0.193,0.236,0.621,0.58,1.271,0.91l0,0
			c1.292,0.67,3.392,1.261,5.779,1.688l0,0l-0.735,4.073C301.492,393.688,298.07,392.843,295.913,390.452L295.913,390.452z"/>
	</g>
	<g>
		<path fill="#FAC473" d="M49.394,220.365c0,0-1.358,1.429-1.505,2.192c-0.905,4.756,3.507,2.859,3.932,2.275
			c0.426-0.589,0.899-2.142,0.899-2.142L49.394,220.365z"/>
		<path fill="#CDCFFF" d="M61.062,210.83h0.003l3.052-2.794c2.311,2.569,7.59,9.099,15.544,10.512l0,0l-0.736,4.074
			C69.147,220.837,63.231,213.16,61.062,210.83L61.062,210.83z"/>
		<path fill="#CDCFFF" d="M49.261,220.423c4.574-6.765,9.473-9.908,12.914-11.302l0,0v0.002l1.561,3.833
			c-2.723,1.117-6.891,3.664-11.045,9.79l0,0L49.261,220.423L49.261,220.423z"/>
		<path fill="#CDCFFF" d="M64.39,208.584l-2.486,0.715c-0.197,5.484-1.016,10.627-2.036,15.088h10.188
			C67.39,215.59,64.39,208.584,64.39,208.584z"/>
		<path d="M76.837,237.905l-3.067,1.556c-0.979-5.347-2.343-10.542-3.714-15.074H59.867c-2.165,9.452-5.24,15.834-5.24,15.834
			s3.279,3.185,9.44,3.185l-0.031-1.542c-1.869,0-2.982-0.58-2.982-0.58s3.222-6.888,4-13.618c2.592,8.734,3.546,15.74,3.546,15.74
			c5.292-1.151,8.792-3.965,8.792-3.965L76.837,237.905z"/>
		<path d="M67.969,222.818h1.603c-1.455-7.395-4.605-13.232-4.605-13.232l-1.024,0.234
			C67.896,214.855,67.969,222.818,67.969,222.818z"/>
		<path fill="#FAC473" d="M62.004,209.299c0,0,3.619-0.536,4.674-1.592c1.056-1.054,0.533-5.57-0.395-6.497
			c-0.928-0.927-4.917-1.037-5.676-0.279C59.85,201.688,62.004,209.299,62.004,209.299z"/>
		<path fill="#FAC473" d="M78.771,222.619c0,0,1.856,0.663,2.614,0.488c4.715-1.098,1.195-4.364,0.489-4.517
			c-0.709-0.15-2.323,0.046-2.323,0.046L78.771,222.619z"/>
	</g>
	<g>
		<path fill="#FFFFFF" stroke="#000000" stroke-width="0.25" stroke-miterlimit="10" d="M583.8,378.926
			c0,0-18.348,23.688,1.046,23.219C604.24,401.674,583.8,378.926,583.8,378.926z"/>
		<polygon fill="#E6E6E6" points="584.032,377.247 580.715,370.741 587.032,370.588 		"/>
		<path fill="#FAC473" d="M548.434,386.523c0,0-1.354,1.431-1.505,2.188c-0.898,4.762,3.506,2.855,3.938,2.273
			c0.427-0.594,0.896-2.146,0.896-2.146L548.434,386.523z"/>
		<path fill="#8CE6AA" d="M560.952,378.26l0.003-0.002l1.314-3.924c3.268,1.13,11.047,4.279,18.688,1.658l0,0l1.332,3.919
			C572.876,383.089,563.979,379.245,560.952,378.26L560.952,378.26z"/>
		<path fill="#8CE6AA" d="M548.3,386.582c4.574-6.764,9.472-9.908,12.915-11.3l0,0l1.563,3.833
			c-2.729,1.115-6.896,3.664-11.048,9.791l0,0L548.3,386.582L548.3,386.582z"/>
		<path fill="#8CE6AA" d="M563.429,374.744l-2.479,0.714c-0.197,5.485-1.021,10.627-2.036,15.089H569.1
			C566.43,381.749,563.429,374.744,563.429,374.744z"/>
		<path d="M575.876,404.064l-3.067,1.556c-0.979-5.347-2.343-10.541-3.714-15.073h-10.188c-2.165,9.452-5.239,15.834-5.239,15.834
			s3.278,3.188,9.439,3.188l-0.031-1.543c-1.869,0-2.982-0.578-2.982-0.578s3.229-6.896,4-13.618
			c2.594,8.729,3.547,15.739,3.547,15.739c5.291-1.15,8.791-3.972,8.791-3.972L575.876,404.064z"/>
		<path d="M567.008,388.979h1.604c-1.455-7.395-4.605-13.229-4.605-13.229l-1.021,0.23
			C566.935,381.016,567.008,388.979,567.008,388.979z"/>
		<path fill="#FAC473" d="M561.044,375.458c0,0,3.618-0.535,4.673-1.591c1.062-1.055,0.534-5.57-0.394-6.497
			c-0.935-0.927-4.918-1.037-5.677-0.28C558.89,367.848,561.044,375.458,561.044,375.458z"/>
		<path fill="#FAC473" d="M582.156,379.982c0,0,1.939-0.32,2.521-0.842c3.591-3.246-1.065-4.396-1.763-4.188
			c-0.693,0.213-2.01,1.167-2.01,1.167L582.156,379.982z"/>
	</g>
	<polygon fill="#9EA0FF" points="98.899,263.277 113.419,248.758 98.899,234.236 96.368,234.236 110.888,248.758 96.368,263.277 	
		"/>
	<polygon fill="#9EA0FF" points="219.748,263.277 234.269,248.758 219.748,234.236 217.218,234.236 231.737,248.758 
		217.218,263.277 	"/>
	<polygon fill="#9EA0FF" points="356.091,263.277 370.61,248.758 356.091,234.236 353.561,234.236 368.08,248.758 353.561,263.277 	
		"/>
	<polygon fill="#9EA0FF" points="454.726,263.277 469.245,248.758 454.726,234.236 452.194,234.236 466.714,248.758 
		452.194,263.277 	"/>
	<polygon fill="#85DBA2" points="421.93,429.776 436.449,415.256 421.93,400.734 419.399,400.734 433.919,415.256 419.399,429.776 	
		"/>
	<polygon fill="#9EA0FF" points="472.446,79.06 457.926,93.579 472.446,108.1 474.976,108.1 460.456,93.579 474.976,79.06 	"/>
	<polygon fill="#85DBA2" points="318.877,79.06 304.356,93.579 318.877,108.1 321.407,108.1 306.888,93.579 321.407,79.06 	"/>
	<polygon fill="#9EA0FF" points="539.261,169.96 524.741,155.439 510.221,169.96 510.221,172.49 524.741,157.971 539.261,172.49 	
		"/>
	<polygon fill="#85DBA2" points="244.767,158.185 259.497,172.49 273.804,157.76 273.767,155.229 259.461,169.96 244.729,155.654 	
		"/>
	<polygon fill="#85DBA2" points="244.767,341.91 259.497,356.216 273.804,341.484 273.767,338.955 259.461,353.686 244.729,339.38 	
		"/>
	<g>
		<path d="M34.739,121.726V80.442h16.712c3.969,0,7.053,0.945,9.251,2.834c2.197,1.889,3.295,4.702,3.295,8.441
			c0,1.812-0.328,3.422-0.983,4.827c-0.655,1.408-1.56,2.583-2.718,3.527c-1.156,0.945-2.533,1.658-4.134,2.14
			s-3.364,0.723-5.291,0.723H35.896v18.791L34.739,121.726L34.739,121.726z M51.451,101.778c1.617,0,3.122-0.222,4.508-0.665
			c1.389-0.442,2.593-1.099,3.614-1.965c1.021-0.869,1.822-1.918,2.399-3.151c0.579-1.234,0.868-2.662,0.868-4.279
			c0-3.275-0.936-5.782-2.805-7.517c-1.869-1.735-4.731-2.602-8.585-2.602H35.896v20.179H51.451z"/>
		<path d="M66.481,121.726V80.442h16.884c4.317,0,7.479,0.858,9.483,2.573c2.004,1.715,3.044,4.386,3.122,8.008
			c0.076,2.776-0.655,5.079-2.197,6.91s-3.759,3.074-6.649,3.729v0.115c1.734,0.231,3.142,0.646,4.221,1.244
			c1.08,0.597,1.908,1.377,2.486,2.341c0.579,0.964,0.963,2.102,1.156,3.411c0.193,1.311,0.289,2.796,0.289,4.452
			c0,0.578,0.02,1.301,0.059,2.169c0.037,0.866,0.096,1.725,0.173,2.572c0.077,0.85,0.173,1.619,0.29,2.312
			c0.114,0.694,0.27,1.176,0.462,1.445h-1.272c-0.193-0.423-0.346-0.992-0.463-1.705c-0.114-0.712-0.201-1.474-0.26-2.284
			c-0.058-0.809-0.096-1.627-0.115-2.458c-0.02-0.827-0.028-1.569-0.028-2.225c0-1.696-0.126-3.21-0.377-4.539
			c-0.251-1.33-0.761-2.448-1.531-3.354c-0.771-0.904-1.87-1.598-3.296-2.08c-1.428-0.482-3.335-0.724-5.724-0.724H67.638v19.369
			h-1.157V121.726z M83.076,101.199c1.542,0,3.017-0.191,4.423-0.577c1.408-0.386,2.65-1.003,3.73-1.851
			c1.078-0.848,1.945-1.917,2.602-3.209c0.657-1.292,0.983-2.842,0.983-4.654c-0.038-2.93-0.925-5.213-2.659-6.852
			c-1.735-1.638-4.568-2.457-8.5-2.457H67.638v19.6H83.076z"/>
		<path d="M101.521,80.442v41.283h-1.156V80.442H101.521z"/>
		<path d="M145.175,80.442v41.283h-1.157V81.888h-0.114l-17.52,39.838h-1.272l-17.52-39.838h-0.116v39.838h-1.155V80.442h1.907
			l17.463,39.78h0.113l17.464-39.78H145.175z"/>
		<path d="M177.612,120.57v1.155h-27.639V80.442h27.408V81.6H151.13v18.04h24.689v1.155H151.13v19.775H177.612z"/>
		<path d="M179.577,121.726V80.442h16.883c4.318,0,7.479,0.858,9.483,2.573c2.005,1.715,3.044,4.386,3.123,8.008
			c0.075,2.776-0.656,5.079-2.198,6.91c-1.541,1.831-3.758,3.074-6.649,3.729v0.115c1.735,0.231,3.142,0.646,4.222,1.244
			c1.079,0.597,1.907,1.377,2.486,2.341c0.578,0.964,0.963,2.102,1.156,3.411c0.192,1.311,0.289,2.796,0.289,4.452
			c0,0.578,0.02,1.301,0.059,2.169c0.036,0.866,0.096,1.725,0.172,2.572c0.077,0.85,0.174,1.619,0.29,2.312
			c0.114,0.694,0.27,1.176,0.462,1.445h-1.271c-0.193-0.423-0.347-0.992-0.463-1.705c-0.115-0.712-0.202-1.474-0.26-2.284
			c-0.058-0.809-0.097-1.627-0.115-2.458c-0.02-0.827-0.029-1.569-0.029-2.225c0-1.696-0.125-3.21-0.377-4.539
			c-0.25-1.33-0.761-2.448-1.531-3.354c-0.771-0.904-1.87-1.598-3.296-2.08c-1.427-0.482-3.335-0.724-5.724-0.724h-15.555v19.369
			h-1.157V121.726L179.577,121.726z M196.172,101.199c1.542,0,3.017-0.191,4.423-0.577c1.408-0.386,2.649-1.003,3.73-1.851
			c1.078-0.848,1.944-1.917,2.602-3.209c0.655-1.292,0.982-2.842,0.982-4.654c-0.038-2.93-0.924-5.213-2.659-6.852
			c-1.735-1.638-4.567-2.457-8.499-2.457h-16.018v19.6H196.172z"/>
	</g>
	<g>
		<path d="M31.817,60.182v-3.404h15.088v3.404h-5.52v15.011h-4.049V60.182H31.817z"/>
		<path d="M51.135,56.777v18.415h-4.049V56.777H51.135z"/>
		<path d="M58.459,56.777l4.308,12.663h0.052l4.074-12.663h5.7v18.415h-3.791v-13.05h-0.051l-4.515,13.051h-3.12l-4.514-12.922
			H56.55v12.922h-3.791V56.777H58.459z"/>
		<path d="M87.99,56.777v3.404h-9.724v3.946h8.925v3.146h-8.925v4.513h9.931v3.405H74.218V56.777H87.99z"/>
		<path d="M92.787,60.182v-3.404h15.088v3.404h-5.52v15.011h-4.049V60.182H92.787z"/>
		<path d="M117.985,56.777c0.824,0,1.568,0.134,2.23,0.399c0.661,0.268,1.229,0.632,1.702,1.097s0.834,1.001,1.083,1.611
			c0.249,0.611,0.375,1.27,0.375,1.974c0,1.083-0.229,2.021-0.685,2.812c-0.455,0.79-1.199,1.392-2.229,1.806v0.051
			c0.498,0.138,0.91,0.349,1.237,0.632c0.326,0.284,0.593,0.619,0.799,1.006c0.207,0.388,0.356,0.812,0.452,1.276
			c0.094,0.465,0.158,0.929,0.193,1.394c0.018,0.292,0.034,0.637,0.051,1.031c0.018,0.396,0.048,0.8,0.091,1.212
			c0.043,0.413,0.112,0.805,0.206,1.174c0.094,0.369,0.236,0.683,0.426,0.941h-4.049c-0.225-0.585-0.361-1.281-0.412-2.089
			c-0.053-0.809-0.129-1.582-0.232-2.322c-0.139-0.963-0.431-1.667-0.878-2.114c-0.446-0.446-1.177-0.671-2.192-0.671h-4.049v7.196
			h-4.049V56.777H117.985z M116.541,65.108c0.928,0,1.624-0.206,2.089-0.62c0.465-0.412,0.697-1.083,0.697-2.012
			c0-0.894-0.232-1.543-0.697-1.947c-0.465-0.402-1.161-0.605-2.089-0.605h-4.437v5.185L116.541,65.108L116.541,65.108z"/>
		<path d="M133.923,56.777l6.887,18.415h-4.204l-1.392-4.101h-6.887l-1.444,4.101h-4.075l6.963-18.415H133.923z M134.155,68.073
			l-2.32-6.756h-0.053l-2.397,6.756H134.155z"/>
		<path d="M143.287,75.192l-5.958-18.415h4.152l4.101,12.947h0.052l4.152-12.947h4.178l-6.112,18.415H143.287z"/>
		<path d="M167.374,56.777v3.404h-9.723v3.946h8.925v3.146h-8.925v4.513h9.931v3.405h-13.979V56.777H167.374z"/>
		<path d="M172.43,56.777v15.01h8.976v3.405H168.38V56.777H172.43z"/>
		<path d="M191.024,56.777v18.415h-4.049V56.777H191.024z"/>
		<path d="M196.673,56.777l7.686,12.354h0.051V56.777h3.793v18.415h-4.05l-7.66-12.328h-0.052v12.328h-3.791V56.777H196.673z"/>
	</g>
	<g>
		<path fill="#BFC0ED" d="M108.663,577.42v-0.881h1.51v-5.566l-1.51,0.376v-0.899l3.022-0.755v6.852h1.509v0.881L108.663,577.42
			L108.663,577.42z"/>
		<path fill="#BFC0ED" d="M115.288,577.42v-0.881h1.508v-5.566l-1.508,0.376v-0.899l3.021-0.755v6.852h1.509v0.881L115.288,577.42
			L115.288,577.42z"/>
		<path fill="#BFC0ED" d="M120.98,573.332v-1.509h1.509v1.509H120.98z M120.98,577.42v-1.509h1.509v1.509H120.98z"/>
		<path fill="#BFC0ED" d="M126.775,577.42v-2.014h-3.522v-1.131l3.461-4.399h1.382v4.399h0.882v1.131h-0.882v2.014H126.775z
			 M124.46,574.275h2.345v-2.956L124.46,574.275z"/>
		<path fill="#BFC0ED" d="M130.683,577.39v-1.096c0.642,0.248,1.176,0.372,1.604,0.372c0.434,0,0.775-0.128,1.029-0.386
			c0.254-0.256,0.378-0.604,0.378-1.042c0-1.08-0.774-1.621-2.329-1.621c-0.184,0-0.367,0.015-0.55,0.047v-3.788h4.333v1.193h-3.232
			l-0.077,1.625c1.088,0,1.937,0.224,2.546,0.668c0.612,0.438,0.916,1.062,0.916,1.866c0,0.73-0.268,1.312-0.8,1.736
			c-0.534,0.432-1.265,0.644-2.192,0.644C131.913,577.608,131.371,577.535,130.683,577.39z"/>
		<path fill="#BFC0ED" d="M139.312,577.42l2.936-7.544h1.57l2.936,7.544h-1.61l-0.786-2.014h-3.119l-0.784,2.014H139.312z
			 M141.624,574.402h2.345l-1.171-3.014L141.624,574.402z"/>
		<path fill="#BFC0ED" d="M147.562,577.42v-7.544h2.08l1.814,5.306l1.871-5.306h1.824v7.544h-1.448v-5.692l-1.839,5.188H150.6
			l-1.803-5.265v5.77L147.562,577.42L147.562,577.42z"/>
	</g>
	<polygon fill="#BFC0ED" points="524.161,392.962 524.161,261.896 525.321,261.896 525.321,392.962 	"/>
	<polygon fill="#BFC0ED" points="258.917,563.896 258.917,428.336 260.077,428.336 260.077,563.896 	"/>
	<polygon fill="#BFC0ED" points="524.161,563.896 524.161,435.262 525.321,435.262 525.321,563.896 	"/>
	<polygon fill="#BFC0ED" points="131.063,563.898 131.063,268.714 132.224,268.714 132.224,563.898 	"/>
	<g>
		<path fill="#BFC0ED" d="M237.159,577.42v-0.881h1.508v-5.566l-1.508,0.376v-0.899l3.021-0.755v6.852h1.509v0.881L237.159,577.42
			L237.159,577.42z"/>
		<path fill="#BFC0ED" d="M243.066,577.42v-1.192l0.082-0.105c0.403-0.54,0.817-0.996,1.243-1.366l0.616-0.546
			c1.018-0.897,1.524-1.688,1.524-2.359c0-0.788-0.448-1.183-1.346-1.183c-0.555,0-1.195,0.188-1.928,0.561v-1.104
			c0.769-0.285,1.512-0.434,2.229-0.434c0.802,0,1.443,0.188,1.926,0.566c0.482,0.379,0.725,0.887,0.725,1.521
			c0,0.438-0.118,0.838-0.354,1.191c-0.233,0.36-0.646,0.778-1.236,1.255l-0.51,0.406c-0.712,0.571-1.133,1.104-1.265,1.591h3.333
			v1.192L243.066,577.42L243.066,577.42z"/>
		<path fill="#BFC0ED" d="M249.478,573.332v-1.509h1.509v1.509H249.478z M249.478,577.42v-1.509h1.509v1.509H249.478z"/>
		<path fill="#BFC0ED" d="M254.67,577.608c-0.856,0-1.552-0.367-2.087-1.104c-0.534-0.729-0.802-1.687-0.802-2.854
			c0-1.188,0.268-2.146,0.805-2.87c0.536-0.729,1.243-1.097,2.12-1.097c0.87,0,1.574,0.362,2.113,1.094
			c0.539,0.727,0.807,1.677,0.807,2.853c0,1.206-0.268,2.171-0.807,2.896C256.28,577.247,255.564,577.608,254.67,577.608z
			 M254.686,576.666c0.896,0,1.341-1.006,1.341-3.018c0-2.019-0.439-3.021-1.32-3.021c-0.879,0-1.32,1.004-1.32,3.013
			C253.386,575.658,253.82,576.666,254.686,576.666z"/>
		<path fill="#BFC0ED" d="M261.294,577.608c-0.856,0-1.552-0.367-2.087-1.104c-0.534-0.729-0.802-1.687-0.802-2.854
			c0-1.188,0.268-2.146,0.805-2.87c0.537-0.729,1.243-1.097,2.12-1.097c0.87,0,1.574,0.362,2.113,1.094
			c0.539,0.727,0.807,1.677,0.807,2.853c0,1.206-0.268,2.171-0.807,2.896C262.904,577.247,262.188,577.608,261.294,577.608z
			 M261.31,576.666c0.895,0,1.341-1.006,1.341-3.018c0-2.019-0.439-3.021-1.32-3.021c-0.879,0-1.321,1.004-1.321,3.013
			C260.009,575.658,260.444,576.666,261.31,576.666z"/>
		<path fill="#BFC0ED" d="M268.634,577.42v-7.544h2.63c0.917,0,1.574,0.154,1.966,0.461c0.393,0.31,0.59,0.823,0.59,1.542
			c0,0.815-0.264,1.451-0.789,1.904c-0.525,0.454-1.26,0.681-2.204,0.681h-0.652v2.956H268.634z M270.174,573.429h0.306
			c0.537,0,0.961-0.125,1.271-0.374c0.312-0.25,0.467-0.589,0.467-1.018c0-0.751-0.479-1.125-1.432-1.125h-0.612V573.429z"/>
		<path fill="#BFC0ED" d="M274.774,577.42v-7.544h2.08l1.814,5.306l1.871-5.306h1.824v7.544h-1.448v-5.692l-1.839,5.188h-1.265
			l-1.803-5.265v5.77L274.774,577.42L274.774,577.42z"/>
	</g>
	<g>
		<path fill="#BFC0ED" d="M506.342,573.419c0.479-0.57,1.076-0.854,1.815-0.854c0.672,0,1.229,0.221,1.672,0.663
			c0.438,0.438,0.661,1.005,0.661,1.681c0,0.792-0.254,1.438-0.771,1.942c-0.51,0.507-1.167,0.759-1.969,0.759
			c-0.938,0-1.669-0.333-2.196-1.002c-0.521-0.667-0.783-1.603-0.783-2.785c0-1.313,0.3-2.325,0.896-3.05
			c0.599-0.729,1.44-1.096,2.525-1.096c0.51,0,1.142,0.099,1.896,0.275v1.104c-0.688-0.285-1.303-0.437-1.847-0.437
			c-0.604,0-1.073,0.245-1.406,0.734C506.505,571.849,506.342,572.536,506.342,573.419z M508.98,575.157
			c0-0.521-0.111-0.919-0.345-1.22c-0.226-0.304-0.525-0.448-0.92-0.448c-0.37,0-0.682,0.138-0.936,0.408
			c-0.253,0.271-0.379,0.604-0.379,1.01c0,0.521,0.123,0.952,0.37,1.271c0.246,0.324,0.567,0.485,0.975,0.485
			c0.374,0,0.672-0.138,0.896-0.41C508.87,575.981,508.98,575.615,508.98,575.157z"/>
		<path fill="#BFC0ED" d="M511.407,573.332v-1.509h1.509v1.509H511.407z M511.407,577.42v-1.509h1.509v1.509H511.407z"/>
		<path fill="#BFC0ED" d="M516.6,577.608c-0.854,0-1.552-0.367-2.087-1.104c-0.534-0.729-0.803-1.687-0.803-2.854
			c0-1.188,0.269-2.146,0.806-2.87c0.537-0.729,1.243-1.097,2.12-1.097c0.87,0,1.574,0.362,2.112,1.094
			c0.54,0.727,0.808,1.677,0.808,2.853c0,1.206-0.268,2.171-0.808,2.896C518.21,577.247,517.493,577.608,516.6,577.608z
			 M516.615,576.666c0.894,0,1.341-1.006,1.341-3.018c0-2.019-0.44-3.021-1.32-3.021s-1.313,1.004-1.313,3.013
			C515.315,575.658,515.749,576.666,516.615,576.666z"/>
		<path fill="#BFC0ED" d="M523.225,577.608c-0.854,0-1.552-0.367-2.087-1.104c-0.534-0.729-0.803-1.687-0.803-2.854
			c0-1.188,0.269-2.146,0.806-2.87c0.537-0.729,1.243-1.097,2.12-1.097c0.87,0,1.574,0.362,2.112,1.094
			c0.54,0.727,0.808,1.677,0.808,2.853c0,1.206-0.268,2.171-0.808,2.896C524.835,577.247,524.118,577.608,523.225,577.608z
			 M523.24,576.666c0.894,0,1.341-1.006,1.341-3.018c0-2.019-0.44-3.021-1.32-3.021s-1.313,1.004-1.313,3.013
			C521.94,575.658,522.374,576.666,523.24,576.666z"/>
		<path fill="#BFC0ED" d="M530.562,577.42v-7.544h2.636c0.917,0,1.566,0.154,1.965,0.461c0.394,0.31,0.589,0.823,0.589,1.542
			c0,0.815-0.263,1.451-0.787,1.904c-0.521,0.454-1.26,0.681-2.204,0.681h-0.646v2.956H530.562z M532.104,573.429h0.312
			c0.536,0,0.961-0.125,1.271-0.374c0.312-0.25,0.473-0.589,0.473-1.018c0-0.751-0.479-1.125-1.438-1.125h-0.606v2.517H532.104z"/>
		<path fill="#BFC0ED" d="M536.704,577.42v-7.544h2.08l1.812,5.306l1.871-5.306h1.825v7.544h-1.448v-5.692l-1.84,5.188h-1.265
			l-1.81-5.265v5.77L536.704,577.42L536.704,577.42z"/>
	</g>
	<polygon fill="#BFC0ED" points="258.917,80.38 258.917,40.365 260.077,40.365 260.077,80.38 	"/>
	<polygon fill="#BFC0ED" points="524.161,80.381 524.161,40.365 525.321,40.365 525.321,80.381 	"/>
	<g>
		<path fill="#BFC0ED" d="M236.518,35.22v-0.881h1.509v-5.566l-1.509,0.376v-0.906l3.022-0.754v6.851h1.508v0.881h-4.53V35.22z"/>
		<path fill="#BFC0ED" d="M242.423,35.22v-1.193l0.082-0.112c0.403-0.54,0.818-0.996,1.244-1.366l0.615-0.546
			c1.018-0.897,1.525-1.683,1.525-2.359c0-0.789-0.449-1.183-1.346-1.183c-0.555,0-1.196,0.187-1.928,0.561v-1.105
			c0.768-0.285,1.511-0.428,2.229-0.428c0.803,0,1.443,0.188,1.926,0.568c0.482,0.379,0.725,0.887,0.725,1.521
			c0,0.439-0.117,0.838-0.354,1.198c-0.232,0.36-0.645,0.778-1.236,1.254l-0.51,0.408c-0.711,0.571-1.133,1.101-1.264,1.59h3.332
			v1.193h-5.04V35.22L242.423,35.22z"/>
		<path fill="#BFC0ED" d="M248.834,31.132v-1.509h1.509v1.509H248.834z M248.834,35.22v-1.509h1.509v1.509H248.834z"/>
		<path fill="#BFC0ED" d="M254.026,35.408c-0.856,0-1.552-0.367-2.086-1.101c-0.535-0.734-0.803-1.687-0.803-2.859
			c0-1.186,0.268-2.142,0.805-2.87c0.537-0.726,1.244-1.09,2.12-1.09c0.87,0,1.575,0.363,2.114,1.087
			c0.539,0.726,0.806,1.677,0.806,2.852c0,1.207-0.267,2.171-0.806,2.896C255.638,35.047,254.921,35.408,254.026,35.408z
			 M254.042,34.466c0.896,0,1.342-1.006,1.342-3.018c0-2.012-0.439-3.018-1.321-3.018c-0.879,0-1.32,1.004-1.32,3.013
			C252.742,33.459,253.177,34.466,254.042,34.466z"/>
		<path fill="#BFC0ED" d="M260.65,35.408c-0.856,0-1.552-0.367-2.087-1.101c-0.534-0.734-0.802-1.687-0.802-2.859
			c0-1.186,0.268-2.142,0.805-2.87c0.536-0.726,1.243-1.09,2.12-1.09c0.87,0,1.574,0.363,2.113,1.087
			c0.539,0.726,0.807,1.677,0.807,2.852c0,1.207-0.268,2.171-0.807,2.896C262.261,35.047,261.545,35.408,260.65,35.408z
			 M260.666,34.466c0.896,0,1.341-1.006,1.341-3.018c0-2.012-0.439-3.018-1.32-3.018c-0.879,0-1.32,1.004-1.32,3.013
			C259.366,33.459,259.801,34.466,260.666,34.466z"/>
		<path fill="#BFC0ED" d="M269.274,35.22v-7.543h2.631c0.917,0,1.572,0.154,1.965,0.461c0.394,0.308,0.589,0.822,0.589,1.542
			c0,0.815-0.263,1.451-0.787,1.904c-0.525,0.454-1.26,0.681-2.204,0.681h-0.651v2.957h-1.542L269.274,35.22L269.274,35.22z
			 M270.815,31.229h0.307c0.536,0,0.961-0.125,1.271-0.374c0.312-0.25,0.468-0.589,0.468-1.017c0-0.751-0.479-1.126-1.433-1.126
			h-0.612L270.815,31.229L270.815,31.229z"/>
		<path fill="#BFC0ED" d="M275.416,35.22v-7.543h2.08l1.813,5.305l1.871-5.305h1.825v7.543h-1.448v-5.693l-1.84,5.188h-1.265
			l-1.804-5.265v5.77H275.416z"/>
	</g>
	<g>
		<path fill="#BFC0ED" d="M506.342,31.22c0.479-0.571,1.076-0.854,1.815-0.854c0.672,0,1.229,0.221,1.672,0.665
			c0.438,0.443,0.661,1.003,0.661,1.68c0,0.792-0.254,1.439-0.771,1.943c-0.51,0.505-1.167,0.757-1.969,0.757
			c-0.938,0-1.669-0.333-2.196-1.001c-0.521-0.667-0.783-1.596-0.783-2.785c0-1.308,0.3-2.325,0.896-3.05
			c0.599-0.726,1.44-1.088,2.525-1.088c0.51,0,1.142,0.092,1.896,0.275v1.101c-0.688-0.289-1.303-0.433-1.847-0.433
			c-0.604,0-1.073,0.245-1.406,0.734C506.506,29.651,506.342,30.336,506.342,31.22z M508.98,32.957c0-0.513-0.111-0.918-0.345-1.219
			c-0.226-0.298-0.525-0.449-0.92-0.449c-0.37,0-0.682,0.137-0.936,0.408c-0.253,0.273-0.379,0.609-0.379,1.011
			c0,0.526,0.123,0.951,0.37,1.273c0.246,0.324,0.567,0.485,0.975,0.485c0.374,0,0.672-0.137,0.896-0.41
			C508.87,33.782,508.98,33.416,508.98,32.957z"/>
		<path fill="#BFC0ED" d="M511.407,31.132v-1.509h1.509v1.509H511.407z M511.407,35.22v-1.509h1.509v1.509H511.407z"/>
		<path fill="#BFC0ED" d="M516.6,35.408c-0.854,0-1.552-0.367-2.087-1.101c-0.534-0.734-0.803-1.687-0.803-2.859
			c0-1.186,0.269-2.142,0.806-2.87c0.537-0.726,1.243-1.09,2.12-1.09c0.87,0,1.574,0.363,2.112,1.087
			c0.54,0.726,0.808,1.677,0.808,2.852c0,1.207-0.268,2.171-0.808,2.896C518.21,35.047,517.493,35.408,516.6,35.408z
			 M516.615,34.466c0.894,0,1.341-1.006,1.341-3.018c0-2.012-0.44-3.018-1.32-3.018s-1.313,1.004-1.313,3.013
			C515.315,33.459,515.749,34.466,516.615,34.466z"/>
		<path fill="#BFC0ED" d="M523.225,35.408c-0.854,0-1.552-0.367-2.087-1.101c-0.534-0.734-0.803-1.687-0.803-2.859
			c0-1.186,0.269-2.142,0.806-2.87c0.537-0.726,1.243-1.09,2.12-1.09c0.87,0,1.574,0.363,2.112,1.087
			c0.54,0.726,0.808,1.677,0.808,2.852c0,1.207-0.268,2.171-0.808,2.896C524.835,35.047,524.118,35.408,523.225,35.408z
			 M523.24,34.466c0.894,0,1.341-1.006,1.341-3.018c0-2.012-0.44-3.018-1.32-3.018s-1.313,1.004-1.313,3.013
			C521.94,33.459,522.374,34.466,523.24,34.466z"/>
		<path fill="#BFC0ED" d="M530.562,35.22v-7.543h2.636c0.917,0,1.566,0.154,1.965,0.461c0.394,0.308,0.589,0.822,0.589,1.542
			c0,0.815-0.263,1.451-0.787,1.904c-0.521,0.454-1.26,0.681-2.204,0.681h-0.646v2.957h-1.542L530.562,35.22L530.562,35.22z
			 M532.104,31.229h0.312c0.536,0,0.961-0.125,1.271-0.374c0.312-0.25,0.473-0.589,0.473-1.017c0-0.751-0.479-1.126-1.438-1.126
			h-0.606v2.517H532.104z"/>
		<path fill="#BFC0ED" d="M536.704,35.22v-7.543h2.08l1.812,5.305l1.871-5.305h1.825v7.543h-1.448v-5.693l-1.84,5.188h-1.265
			l-1.81-5.265v5.77H536.704z"/>
	</g>
	<path d="M587.92,393.049c-0.134-0.318-0.314-0.589-0.542-0.81c-0.225-0.224-0.481-0.401-0.767-0.539
		c-0.286-0.14-0.581-0.259-0.893-0.36c-0.388-0.129-0.715-0.234-0.979-0.318c-0.271-0.082-0.484-0.159-0.649-0.229
		c-0.168-0.074-0.288-0.154-0.354-0.249c-0.074-0.092-0.112-0.208-0.112-0.353c0-0.233,0.095-0.434,0.284-0.574
		c0.188-0.146,0.436-0.229,0.741-0.229c0.232,0,0.438,0.021,0.601,0.055c0.162,0.039,0.313,0.082,0.443,0.139
		c0.133,0.051,0.267,0.095,0.396,0.131c0.129,0.038,0.285,0.062,0.47,0.062c0.302,0,0.535-0.104,0.727-0.301
		c0.185-0.195,0.271-0.445,0.271-0.757c0-0.434-0.233-0.782-0.721-1.062c-0.376-0.218-0.922-0.322-1.562-0.37
		c0-0.286,0-0.622,0-1.062c0-1.41-1.541-0.759-1.541,0c0,0.369,0,0.803,0,1.142c-0.104,0.022-0.219,0.04-0.314,0.071
		c-0.425,0.129-0.8,0.318-1.127,0.578c-0.327,0.262-0.589,0.588-0.783,0.98c-0.191,0.396-0.29,0.859-0.29,1.396
		c0,0.441,0.069,0.812,0.207,1.112c0.139,0.304,0.318,0.552,0.54,0.748c0.222,0.197,0.474,0.354,0.755,0.479
		c0.281,0.119,0.568,0.229,0.865,0.314c0.312,0.104,0.602,0.192,0.865,0.276c0.262,0.082,0.48,0.17,0.677,0.257
		c0.188,0.089,0.335,0.191,0.437,0.316c0.104,0.125,0.152,0.274,0.152,0.463c0,0.24-0.088,0.455-0.263,0.646
		c-0.183,0.188-0.485,0.281-0.935,0.281c-0.278,0-0.547-0.028-0.774-0.089c-0.235-0.063-0.453-0.125-0.651-0.192
		c-0.198-0.066-0.379-0.134-0.539-0.191c-0.162-0.062-0.312-0.088-0.451-0.088c-0.341,0-0.6,0.117-0.773,0.361
		c-0.188,0.245-0.271,0.521-0.271,0.822c0,0.275,0.111,0.518,0.332,0.72c0.222,0.205,0.498,0.372,0.83,0.507
		s0.688,0.232,1.072,0.297c0.157,0.027,0.296,0.024,0.442,0.041c0,0.314,0,0.703,0,1.246c0,1.411,1.541,0.758,1.541,0
		c0-0.423,0-0.914,0-1.271c0.188-0.032,0.383-0.063,0.563-0.113c0.456-0.13,0.853-0.33,1.188-0.603
		c0.337-0.272,0.604-0.613,0.806-1.023c0.191-0.411,0.298-0.898,0.298-1.479C588.119,393.762,588.054,393.367,587.92,393.049z"/>
	<line fill="none" stroke="#BFC0ED" stroke-width="1.1599" x1="267.347" y1="548.383" x2="356.655" y2="548.383"/>
	<line fill="none" stroke="#BFC0ED" stroke-width="1.1599" x1="427.987" y1="548.383" x2="517.296" y2="548.383"/>
	<g>
		<text transform="matrix(1 0 0 1 38 276)" font-family="'MSReferenceSansSerif'" font-size="10">Original </text>
		<text transform="matrix(1 0 0 1 38 288)" font-family="'MSReferenceSansSerif'" font-size="10">person on</text>
		<text transform="matrix(1 0 0 1 85 288)" font-family="'MyriadPro-Regular'" font-size="10"> </text>
		<text transform="matrix(1 0 0 1 38 300)" font-family="'MSReferenceSansSerif'" font-size="10">undisturbed</text>
		<text transform="matrix(1 0 0 1 93 300)" font-family="'MyriadPro-Regular'" font-size="10"> </text>
		<text transform="matrix(1 0 0 1 38 312)" font-family="'MSReferenceSansSerif'" font-size="10">timeline</text>
		<text transform="matrix(1 0 0 1 73 312)" font-family="'MyriadPro-Regular'" font-size="10"> </text>
		<text transform="matrix(1 0 0 1 38 324)" font-family="'MSReferenceSansSerif'" font-size="10">decides to</text>
		<text transform="matrix(1 0 0 1 87 324)" font-family="'MyriadPro-Regular'" font-size="10"> </text>
		<text transform="matrix(1 0 0 1 38 336)" font-family="'MSReferenceSansSerif'" font-size="10">time-travel</text>
		<text transform="matrix(1 0 0 1 138 276)" font-family="'MSReferenceSansSerif'" font-size="10">He activates a </text>
		<text transform="matrix(1 0 0 1 138 288)" font-family="'MSReferenceSansSerif'" font-size="10">delayed switch </text>
		<text transform="matrix(1 0 0 1 185 288)" font-family="'MyriadPro-Regular'" font-size="10"> </text>
		<text transform="matrix(1 0 0 1 138 300)" font-family="'MSReferenceSansSerif'" font-size="10">and leaves the</text>
		<text transform="matrix(1 0 0 1 191 300)" font-family="'MyriadPro-Regular'" font-size="10"> </text>
		<text transform="matrix(1 0 0 1 138 312)" font-family="'MSReferenceSansSerif'" font-size="10">area to avoid</text>
		<text transform="matrix(1 0 0 1 211 312)" font-family="'MyriadPro-Regular'" font-size="10"> </text>
		<text transform="matrix(1 0 0 1 138 324)" font-family="'MSReferenceSansSerif'" font-size="10">encountering</text>
		<text transform="matrix(1 0 0 1 138 336)" font-family="'MSReferenceSansSerif'" font-size="10">his double </text>
		<text transform="matrix(1 0 0 1 176 324)" font-family="'MyriadPro-Regular'" font-size="10"> </text>
		<text transform="matrix(1 0 0 1 199 336)" font-family="'MyriadPro-Regular'" font-size="10"> </text>
		<text transform="matrix(1 0 0 1 374 276)" font-family="'MSReferenceSansSerif'" font-size="10">Original prepares </text>
		<text transform="matrix(1 0 0 1 374 288)" font-family="'MSReferenceSansSerif'" font-size="10">for entry into the</text>
		<text transform="matrix(1 0 0 1 444 288)" font-family="'MyriadPro-Regular'" font-size="10"> </text>
		<text transform="matrix(1 0 0 1 374 300)" font-family="'MSReferenceSansSerif'" font-size="10">box, checking</text>
		<text transform="matrix(1 0 0 1 435 300)" font-family="'MyriadPro-Regular'" font-size="10"> </text>
		<text transform="matrix(1 0 0 1 374 312)" font-family="'MSReferenceSansSerif'" font-size="10">stock prices.  </text>
		<text transform="matrix(1 0 0 1 374 324)" font-family="'MSReferenceSansSerif'" font-size="10">Avoids causative</text>
		<text transform="matrix(1 0 0 1 374 336)" font-family="'MSReferenceSansSerif'" font-size="10">action</text>
		<text transform="matrix(1 0 0 1 530 262)" font-family="'MSReferenceSansSerif'" font-size="10">Original enters </text>
		<text transform="matrix(1 0 0 1 530 274)" font-family="'MSReferenceSansSerif'" font-size="10">the box, joining</text>
		<text transform="matrix(1 0 0 1 603 274)" font-family="'MyriadPro-Regular'" font-size="10"> </text>
		<text transform="matrix(1 0 0 1 530 286)" font-family="'MSReferenceSansSerif'" font-size="10">the looped</text>
		<text transform="matrix(1 0 0 1 613 286)" font-family="'MyriadPro-Regular'" font-size="10"> </text>
		<text transform="matrix(1 0 0 1 530 298)" font-family="'MSReferenceSansSerif'" font-size="10">timestream inside </text>
		<text transform="matrix(1 0 0 1 613 310)" font-family="'MyriadPro-Regular'" font-size="10"> </text>
		<text transform="matrix(1 0 0 1 338 122)" font-family="'MSReferenceSansSerif'" font-size="10">Original waits out 6 hours </text>
		<text transform="matrix(1 0 0 1 338 134)" font-family="'MSReferenceSansSerif'" font-size="10">of subjective time as he</text>
		<text transform="matrix(1 0 0 1 432 134)" font-family="'MyriadPro-Regular'" font-size="10"> </text>
		<text transform="matrix(1 0 0 1 338 146)" font-family="'MSReferenceSansSerif'" font-size="10">travels into the past, </text>
		<text transform="matrix(1 0 0 1 458 146)" font-family="'MyriadPro-Regular'" font-size="10"> </text>
		<text transform="matrix(1 0 0 1 338 158)" font-family="'MSReferenceSansSerif'" font-size="10">becoming his double</text>
		<text transform="matrix(1 0 0 1 281 276)" font-family="'MSReferenceSansSerif'" font-size="10">The machine </text>
		<text transform="matrix(1 0 0 1 281 288)" font-family="'MSReferenceSansSerif'" font-size="10">starts and the</text>
		<text transform="matrix(1 0 0 1 345 288)" font-family="'MyriadPro-Regular'" font-size="10"> </text>
		<text transform="matrix(1 0 0 1 281 300)" font-family="'MSReferenceSansSerif'" font-size="10">double exits</text>
		<text transform="matrix(1 0 0 1 337 300)" font-family="'MyriadPro-Regular'" font-size="10"> </text>
		<text transform="matrix(1 0 0 1 267 447)" font-family="'MSReferenceSansSerif'" font-size="10">Double has 6 hours of </text>
		<text transform="matrix(1 0 0 1 267 459)" font-family="'MSReferenceSansSerif'" font-size="10">causal influence on both his</text>
		<text transform="matrix(1 0 0 1 399 459)" font-family="'MyriadPro-Regular'" font-size="10"> </text>
		<text transform="matrix(1 0 0 1 267 471)" font-family="'MSReferenceSansSerif'" font-size="10">new timeline and </text>
		<text transform="matrix(1 0 0 1 364 471)" font-family="'MyriadPro-Regular'" font-size="10"> </text>
		<text transform="matrix(1 0 0 1 267 483)" font-family="'MSReferenceSansSerif'" font-size="10">his original timeline</text>
		<text transform="matrix(1 0 0 1 533 447)" font-family="'MSReferenceSansSerif'" font-size="10">Double creates an </text>
		<text transform="matrix(1 0 0 1 533 459)" font-family="'MSReferenceSansSerif'" font-size="10">altered future for</text>
		<text transform="matrix(1 0 0 1 610 459)" font-family="'MyriadPro-Regular'" font-size="10"> </text>
		<text transform="matrix(1 0 0 1 533 471)" font-family="'MSReferenceSansSerif'" font-size="10">the double alone.</text>
		<text transform="matrix(1 0 0 1 615 471)" font-family="'MyriadPro-Regular'" font-size="10"> </text>
		<text transform="matrix(1 0 0 1 533 483)" font-family="'MSReferenceSansSerif'" font-size="10">The original loses</text>
		<text transform="matrix(1 0 0 1 623 483)" font-family="'MyriadPro-Regular'" font-size="10"> </text>
		<text transform="matrix(1 0 0 1 533 495)" font-family="'MSReferenceSansSerif'" font-size="10">his existence as </text>
		<text transform="matrix(1 0 0 1 621 495)" font-family="'MyriadPro-Regular'" font-size="10"> </text>
		<text transform="matrix(1 0 0 1 533 507)" font-family="'MSReferenceSansSerif'" font-size="10">such in the loop;</text>
		<text transform="matrix(1 0 0 1 625 507)" font-family="'MyriadPro-Regular'" font-size="10"> </text>
		<text transform="matrix(1 0 0 1 533 519)" font-family="'MSReferenceSansSerif'" font-size="10">his future is only</text>
		<text transform="matrix(1 0 0 1 620 519)" font-family="'MyriadPro-Regular'" font-size="10"> </text>
		<text transform="matrix(1 0 0 1 533 531)" font-family="'MSReferenceSansSerif'" font-size="10">to enter the box</text>
		<text transform="matrix(1 0 0 1 617 531)" font-family="'MyriadPro-Regular'" font-size="10"> </text>
		<text transform="matrix(1 0 0 1 363 533)" font-family="'MSReferenceSansSerif'" font-size="10">Period when </text>
		<text transform="matrix(1 0 0 1 363 545)" font-family="'MSReferenceSansSerif'" font-size="10">original and</text>
		<text transform="matrix(1 0 0 1 417 545)" font-family="'MyriadPro-Regular'" font-size="10"> </text>
		<text transform="matrix(1 0 0 1 363 557)" font-family="'MSReferenceSansSerif'" font-size="10">double exist</text>
		<text transform="matrix(1 0 0 1 419 557)" font-family="'MyriadPro-Regular'" font-size="10"> </text>
		<text transform="matrix(1 0 0 1 363 569)" font-family="'MSReferenceSansSerif'" font-size="10">simultaneously</text>
	</g>
</g>
</svg>
